# xmcd
#
# Track frame offsets:
#	150
#	23923
#	37399
#	56478
#	72714
#	97066
#	120928
#	145485
#	165010
#	176238
#	197076
#
# Disc length: 2880 seconds
#
# Revision: 1
# Processed by: cddbd v1.5.1PL0 Copyright (c) Steve Scherf et al.
# Submitted via: EasyCDDAExtractor 5.0.7
#
DISCID=a10b3e0b
DTITLE=Geriatric Blues Band - Ensaio Hi-Fi 16-06-2004
DYEAR=2004
DGENRE=Blues
TTITLE0=Worried Down With The Blues
TTITLE1=Kansas City
TTITLE2=Hoochie Coochie Man
TTITLE3=Blues Power
TTITLE4=Stormy Monday
TTITLE5=Dangerous Mood
TTITLE6=Five Long Years
TTITLE7=Further On Up The Road
TTITLE8=Look What You Did
TTITLE9=Jumpin' Jack Flash
TTITLE10=Mustang Sally
EXTD=
EXTT0=
EXTT1=
EXTT2=
EXTT3=
EXTT4=
EXTT5=
EXTT6=
EXTT7=
EXTT8=
EXTT9=
EXTT10=
PLAYORDER=
